<svg xmlns="http://www.w3.org/2000/svg" xmlns:xlink="http://www.w3.org/1999/xlink" contentStyleType="text/css" data-diagram-type="CLASS" height="2393.75px" preserveAspectRatio="none" style="width:2596px;height:2393px;background:#FFFFFF;" version="1.1" viewBox="0 0 2596 2393" width="2596.875px" zoomAndPan="magnify"><defs/><g><!--class TokenType--><g class="entity" data-entity="TokenType" data-source-line="11" data-uid="ent0002" id="entity_TokenType"><rect fill="#F1F1F1" height="269.1745" rx="7.8125" ry="7.8125" style="stroke:#181818;stroke-width:1.5625;" width="324.0866" x="21.875" y="1468.75"/><ellipse cx="68.75" cy="1518.75" fill="#EB937F" rx="34.375" ry="34.375" style="stroke:#181818;stroke-width:3.125;"/><path d="M81.5918,1537.5 L57.4707,1537.5 L57.4707,1498.7793 L81.5918,1498.7793 L81.5918,1505.5176 L65.1367,1505.5176 L65.1367,1513.8672 L80.0293,1513.8672 L80.0293,1520.6055 L65.1367,1520.6055 L65.1367,1530.7617 L81.5918,1530.7617 L81.5918,1537.5 Z " fill="#000000"/><text fill="#000000" font-family="sans-serif" font-size="43.75" lengthAdjust="spacing" textLength="224.0866" x="112.5" y="1535.7249">TokenType</text><line style="stroke:#181818;stroke-width:1.5625;" x1="25" x2="342.8366" y1="1568.75" y2="1568.75"/><text fill="#000000" font-family="sans-serif" font-size="43.75" lengthAdjust="spacing" textLength="170.8431" x="40.625" y="1628.0185">Number</text><text fill="#000000" font-family="sans-serif" font-size="43.75" lengthAdjust="spacing" textLength="208.9492" x="40.625" y="1687.6058">Operation</text><line style="stroke:#181818;stroke-width:1.5625;" x1="25" x2="342.8366" y1="1712.9245" y2="1712.9245"/></g><!--class Token--><g class="entity" data-entity="Token" data-source-line="16" data-uid="ent0003" id="entity_Token"><rect fill="#F1F1F1" height="388.349" rx="7.8125" ry="7.8125" style="stroke:#181818;stroke-width:1.5625;" width="611.7165" x="187.5" y="1984.375"/><ellipse cx="417.1429" cy="2034.375" fill="#F1F1F1" rx="34.375" ry="34.375" style="stroke:#181818;stroke-width:3.125;"/><path d="M415.5316,2036.1328 Q409.721,2033.9355 407.6702,2031.543 Q405.6683,2029.1016 405.6683,2025 Q405.6683,2019.7266 409.0374,2016.6992 Q412.4066,2013.6719 418.2659,2013.6719 Q420.9515,2013.6719 423.5882,2014.3066 Q426.2738,2014.8926 428.9105,2016.1133 L428.9105,2023.584 Q426.4691,2021.8262 423.8812,2020.9473 Q421.3421,2020.0195 418.8519,2020.0195 Q416.1175,2020.0195 414.6038,2021.1426 Q413.139,2022.2656 413.139,2024.3164 Q413.139,2025.9277 414.2132,2027.002 Q415.2874,2028.0273 418.7054,2029.2969 L422.0257,2030.5664 Q426.6644,2032.2754 428.8616,2035.1074 Q431.1077,2037.9395 431.1077,2042.2363 Q431.1077,2048.0957 427.6409,2050.9766 Q424.1741,2053.8574 417.1429,2053.8574 Q414.262,2053.8574 411.3812,2053.1738 Q408.5003,2052.4902 405.8148,2051.1719 L405.8148,2043.2617 Q408.8421,2045.4102 411.723,2046.4844 Q414.6038,2047.5586 417.387,2047.5586 Q420.2191,2047.5586 421.7816,2046.2891 Q423.3441,2044.9707 423.3441,2042.6758 Q423.3441,2040.918 422.2698,2039.6484 Q421.2445,2038.3301 419.2913,2037.5488 L415.5316,2036.1328 Z " fill="#000000"/><text fill="#000000" font-family="sans-serif" font-size="43.75" lengthAdjust="spacing" textLength="125.8682" x="481.2054" y="2051.3499">Token</text><line style="stroke:#181818;stroke-width:1.5625;" x1="190.625" x2="796.0915" y1="2084.375" y2="2084.375"/><text fill="#000000" font-family="sans-serif" font-size="43.75" lengthAdjust="spacing" textLength="361.8985" x="206.25" y="2143.6435">+type: TokenType</text><text fill="#000000" font-family="sans-serif" font-size="43.75" lengthAdjust="spacing" textLength="301.1738" x="206.25" y="2203.2308">+value: double</text><text fill="#000000" font-family="sans-serif" font-size="43.75" lengthAdjust="spacing" textLength="404.1173" x="206.25" y="2262.818">+symbol: std::string</text><line style="stroke:#181818;stroke-width:1.5625;" x1="190.625" x2="796.0915" y1="2288.1367" y2="2288.1367"/><text fill="#000000" font-family="sans-serif" font-size="43.75" lengthAdjust="spacing" textLength="574.2165" x="206.25" y="2347.4053">+Token(str: std::string_view)</text></g><!--class IParser--><g class="entity" data-entity="IParser" data-source-line="24" data-uid="ent0004" id="entity_IParser"><rect fill="#F1F1F1" height="209.5872" rx="7.8125" ry="7.8125" style="stroke:#181818;stroke-width:1.5625;" width="1004.8087" x="456.25" y="1498.4375"/><ellipse cx="875.6796" cy="1548.4375" fill="#B4A7E5" rx="34.375" ry="34.375" style="stroke:#181818;stroke-width:3.125;"/><path d="M862.9355,1535.2051 L862.9355,1528.4668 L886.0312,1528.4668 L886.0312,1535.2051 L878.3164,1535.2051 L878.3164,1560.4492 L886.0312,1560.4492 L886.0312,1567.1875 L862.9355,1567.1875 L862.9355,1560.4492 L870.6503,1560.4492 L870.6503,1535.2051 L862.9355,1535.2051 Z " fill="#000000"/><text fill="#000000" font-family="sans-serif" font-size="43.75" font-style="italic" lengthAdjust="spacing" textLength="139.3869" x="939.7421" y="1565.4124">IParser</text><line style="stroke:#181818;stroke-width:1.5625;" x1="459.375" x2="1457.9337" y1="1598.4375" y2="1598.4375"/><line style="stroke:#181818;stroke-width:1.5625;" x1="459.375" x2="1457.9337" y1="1623.4375" y2="1623.4375"/><text fill="#000000" font-family="sans-serif" font-size="43.75" font-style="italic" lengthAdjust="spacing" textLength="967.3087" x="475" y="1682.706">+parse(input: std::string_view): std::vector&lt;Token&gt;</text></g><!--class IOperation--><g class="entity" data-entity="IOperation" data-source-line="33" data-uid="ent0007" id="entity_IOperation"><rect fill="#F1F1F1" height="269.1745" rx="7.8125" ry="7.8125" style="stroke:#181818;stroke-width:1.5625;" width="619.7665" x="1571.875" y="1468.75"/><ellipse cx="1763.018" cy="1518.75" fill="#B4A7E5" rx="34.375" ry="34.375" style="stroke:#181818;stroke-width:3.125;"/><path d="M1750.2739,1505.5176 L1750.2739,1498.7793 L1773.3696,1498.7793 L1773.3696,1505.5176 L1765.6547,1505.5176 L1765.6547,1530.7617 L1773.3696,1530.7617 L1773.3696,1537.5 L1750.2739,1537.5 L1750.2739,1530.7617 L1757.9887,1530.7617 L1757.9887,1505.5176 L1750.2739,1505.5176 Z " fill="#000000"/><text fill="#000000" font-family="sans-serif" font-size="43.75" font-style="italic" lengthAdjust="spacing" textLength="210.9179" x="1827.0805" y="1535.7249">IOperation</text><line style="stroke:#181818;stroke-width:1.5625;" x1="1575" x2="2188.5165" y1="1568.75" y2="1568.75"/><line style="stroke:#181818;stroke-width:1.5625;" x1="1575" x2="2188.5165" y1="1593.75" y2="1593.75"/><text fill="#000000" font-family="sans-serif" font-size="43.75" lengthAdjust="spacing" textLength="542.3666" x="1590.625" y="1653.0185">+symbol(): std::string_view</text><text fill="#000000" font-family="sans-serif" font-size="43.75" lengthAdjust="spacing" textLength="582.2665" x="1590.625" y="1712.6058">+help_text(): std::string_view</text></g><!--class ICalculator--><g class="entity" data-entity="ICalculator" data-source-line="38" data-uid="ent0008" id="entity_ICalculator"><rect fill="#F1F1F1" height="388.349" rx="7.8125" ry="7.8125" style="stroke:#181818;stroke-width:1.5625;" width="1159.3771" x="867.1875" y="21.875"/><ellipse cx="1326.6702" cy="71.875" fill="#B4A7E5" rx="34.375" ry="34.375" style="stroke:#181818;stroke-width:3.125;"/><path d="M1313.9261,58.6426 L1313.9261,51.9043 L1337.0218,51.9043 L1337.0218,58.6426 L1329.3069,58.6426 L1329.3069,83.8867 L1337.0218,83.8867 L1337.0218,90.625 L1313.9261,90.625 L1313.9261,83.8867 L1321.6409,83.8867 L1321.6409,58.6426 L1313.9261,58.6426 Z " fill="#000000"/><text fill="#000000" font-family="sans-serif" font-size="43.75" font-style="italic" lengthAdjust="spacing" textLength="213.8492" x="1390.7327" y="88.8499">ICalculator</text><line style="stroke:#181818;stroke-width:1.5625;" x1="870.3125" x2="2023.4396" y1="121.875" y2="121.875"/><line style="stroke:#181818;stroke-width:1.5625;" x1="870.3125" x2="2023.4396" y1="146.875" y2="146.875"/><text fill="#000000" font-family="sans-serif" font-size="43.75" lengthAdjust="spacing" textLength="1121.8771" x="885.9375" y="206.1435">+add_operation(op: std::unique_ptr&lt;IOperation&gt;): void</text><text fill="#000000" font-family="sans-serif" font-size="43.75" lengthAdjust="spacing" textLength="958.8651" x="885.9375" y="265.7308">+evaluate(expression: std::string_view): double</text><text fill="#000000" font-family="sans-serif" font-size="43.75" lengthAdjust="spacing" textLength="847.6529" x="885.9375" y="325.318">+help_text(): std::vector&lt;std::string_view&gt;</text><text fill="#000000" font-family="sans-serif" font-size="43.75" lengthAdjust="spacing" textLength="1114.2646" x="885.9375" y="384.9053">+supported_operations(): std::vector&lt;std::string_view&gt;</text></g><!--class RPNCalculator--><g class="entity" data-entity="RPNCalculator" data-source-line="61" data-uid="ent0009" id="entity_RPNCalculator"><rect fill="#F1F1F1" height="567.1107" rx="7.8125" ry="7.8125" style="stroke:#181818;stroke-width:1.5625;" width="1166.8146" x="945.3125" y="656.25"/><ellipse cx="1368.1329" cy="706.25" fill="#ADD1B2" rx="34.375" ry="34.375" style="stroke:#181818;stroke-width:3.125;"/><path d="M1377.4102,723.877 Q1375.6036,724.8047 1373.6016,725.2441 Q1371.5997,725.7324 1369.4024,725.7324 Q1361.5899,725.7324 1357.4395,720.6055 Q1353.338,715.4297 1353.338,705.6641 Q1353.338,695.8984 1357.4395,690.7227 Q1361.5899,685.5469 1369.4024,685.5469 Q1371.5997,685.5469 1373.6016,686.0352 Q1375.6524,686.5234 1377.4102,687.4512 L1377.4102,695.9473 Q1375.4571,694.1406 1373.6016,693.3105 Q1371.7462,692.4316 1369.793,692.4316 Q1365.5938,692.4316 1363.4454,695.8008 Q1361.2969,699.1211 1361.2969,705.6641 Q1361.2969,712.207 1363.4454,715.5762 Q1365.5938,718.8965 1369.793,718.8965 Q1371.7462,718.8965 1373.6016,718.0664 Q1375.4571,717.1875 1377.4102,715.3809 L1377.4102,723.877 Z " fill="#000000"/><text fill="#000000" font-family="sans-serif" font-size="43.75" lengthAdjust="spacing" textLength="294.6114" x="1432.1954" y="723.2249">RPNCalculator</text><line style="stroke:#181818;stroke-width:1.5625;" x1="948.4375" x2="2109.0021" y1="756.25" y2="756.25"/><text fill="#000000" font-family="sans-serif" font-size="43.75" lengthAdjust="spacing" textLength="698.7724" x="964.0625" y="815.5185">-parser_: std::unique_ptr&lt;IParser&gt;</text><text fill="#000000" font-family="sans-serif" font-size="43.75" lengthAdjust="spacing" textLength="1129.3146" x="964.0625" y="875.1058">-operations_: std::vector&lt;std::unique_ptr&lt;IOperation&gt;&gt;</text><line style="stroke:#181818;stroke-width:1.5625;" x1="948.4375" x2="2109.0021" y1="900.4245" y2="900.4245"/><text fill="#000000" font-family="sans-serif" font-size="43.75" lengthAdjust="spacing" textLength="1011.1461" x="964.0625" y="959.693">+RPNCalculator(parser: std::unique_ptr&lt;IParser&gt;)</text><text fill="#000000" font-family="sans-serif" font-size="43.75" lengthAdjust="spacing" textLength="1121.8771" x="964.0625" y="1019.2803">+add_operation(op: std::unique_ptr&lt;IOperation&gt;): void</text><text fill="#000000" font-family="sans-serif" font-size="43.75" lengthAdjust="spacing" textLength="958.8651" x="964.0625" y="1078.8675">+evaluate(expression: std::string_view): double</text><text fill="#000000" font-family="sans-serif" font-size="43.75" lengthAdjust="spacing" textLength="847.6529" x="964.0625" y="1138.4547">+help_text(): std::vector&lt;std::string_view&gt;</text><text fill="#000000" font-family="sans-serif" font-size="43.75" lengthAdjust="spacing" textLength="1114.2646" x="964.0625" y="1198.042">+supported_operations(): std::vector&lt;std::string_view&gt;</text></g><!--class RPNParser--><g class="entity" data-entity="RPNParser" data-source-line="62" data-uid="ent0011" id="entity_RPNParser"><rect fill="#F1F1F1" height="209.5872" rx="7.8125" ry="7.8125" style="stroke:#181818;stroke-width:1.5625;" width="1004.8087" x="1381.25" y="2073.4375"/><ellipse cx="1760.5173" cy="2123.4375" fill="#ADD1B2" rx="34.375" ry="34.375" style="stroke:#181818;stroke-width:3.125;"/><path d="M1769.7946,2141.0645 Q1767.988,2141.9922 1765.986,2142.4316 Q1763.9841,2142.9199 1761.7868,2142.9199 Q1753.9743,2142.9199 1749.8239,2137.793 Q1745.7223,2132.6172 1745.7223,2122.8516 Q1745.7223,2113.0859 1749.8239,2107.9102 Q1753.9743,2102.7344 1761.7868,2102.7344 Q1763.9841,2102.7344 1765.986,2103.2227 Q1768.0368,2103.7109 1769.7946,2104.6387 L1769.7946,2113.1348 Q1767.8415,2111.3281 1765.986,2110.498 Q1764.1305,2109.6191 1762.1774,2109.6191 Q1757.9782,2109.6191 1755.8298,2112.9883 Q1753.6813,2116.3086 1753.6813,2122.8516 Q1753.6813,2129.3945 1755.8298,2132.7637 Q1757.9782,2136.084 1762.1774,2136.084 Q1764.1305,2136.084 1765.986,2135.2539 Q1767.8415,2134.375 1769.7946,2132.5684 L1769.7946,2141.0645 Z " fill="#000000"/><text fill="#000000" font-family="sans-serif" font-size="43.75" lengthAdjust="spacing" textLength="219.7117" x="1824.5798" y="2140.4124">RPNParser</text><line style="stroke:#181818;stroke-width:1.5625;" x1="1384.375" x2="2382.9337" y1="2173.4375" y2="2173.4375"/><line style="stroke:#181818;stroke-width:1.5625;" x1="1384.375" x2="2382.9337" y1="2198.4375" y2="2198.4375"/><text fill="#000000" font-family="sans-serif" font-size="43.75" font-style="italic" lengthAdjust="spacing" textLength="967.3087" x="1400" y="2257.706">+parse(input: std::string_view): std::vector&lt;Token&gt;</text></g><!--class main--><g class="entity" data-entity="main" data-source-line="129" data-uid="ent0015" id="entity_main"><rect fill="#F1F1F1" height="200.4245" rx="7.8125" ry="7.8125" style="stroke:#181818;stroke-width:1.5625;" width="437.5235" x="2137.5" y="115.625"/><text fill="#000000" font-family="sans-serif" font-size="43.75" lengthAdjust="spacing" textLength="418.7735" x="2146.875" y="178.0185">Program Entry Point</text><line style="stroke:#181818;stroke-width:1.5625;" x1="2140.625" x2="2571.8985" y1="206.4622" y2="206.4622"/><line style="stroke:#181818;stroke-width:1.5625;" x1="2140.625" x2="2571.8985" y1="231.4622" y2="231.4622"/><text fill="#000000" font-family="sans-serif" font-size="43.75" lengthAdjust="spacing" textLength="207.2429" x="2156.25" y="290.7308">main(): int</text></g><!--link IParser to Token--><g class="link" data-entity-1="IParser" data-entity-2="Token" data-source-line="29" data-uid="lnk5" id="link_IParser_Token"><path codeLine="29" d="M876.125,1707.9375 C813.625,1784.2813 738.0028,1876.6483 662.5028,1968.867" fill="none" id="IParser-to-Token" style="stroke:#181818;stroke-width:3.125;stroke-dasharray:21.875,21.875;"/><polygon fill="#181818" points="650.625,1983.375,678.1136,1969.5315,660.5231,1971.285,658.7697,1953.6945,650.625,1983.375" style="stroke:#181818;stroke-width:3.125;"/><text fill="#000000" font-family="sans-serif" font-size="40.625" lengthAdjust="spacing" textLength="86.9376" x="771.875" y="1877.8032">uses</text></g><!--link TokenType to Token--><g class="link" data-entity-1="TokenType" data-entity-2="Token" data-source-line="31" data-uid="lnk6" id="link_TokenType_Token"><path codeLine="31" d="M256.125,1738.1563 C295.75,1811 345.6875,1902.8125 389.5625,1983.4375" fill="none" id="TokenType-Token" style="stroke:#181818;stroke-width:3.125;stroke-dasharray:21.875,21.875;"/></g><!--reverse link ICalculator to RPNCalculator--><g class="link" data-entity-1="ICalculator" data-entity-2="RPNCalculator" data-source-line="61" data-uid="lnk10" id="link_ICalculator_RPNCalculator"><path codeLine="61" d="M1474.8674,465.892 C1483.4299,541.4233 1487.0938,573.8125 1496.4375,656.25" fill="none" id="ICalculator-backto-RPNCalculator" style="stroke:#181818;stroke-width:3.125;stroke-dasharray:21.875,21.875;"/><polygon fill="none" points="1468.5313,410,1456.2367,468.004,1493.498,463.78,1468.5313,410" style="stroke:#181818;stroke-width:3.125;"/></g><!--reverse link IParser to RPNParser--><g class="link" data-entity-1="IParser" data-entity-2="RPNParser" data-source-line="62" data-uid="lnk12" id="link_IParser_RPNParser"><path codeLine="62" d="M1172.6686,1737.3971 C1340.5124,1840.5846 1551,1970 1718.875,2073.25" fill="none" id="IParser-backto-RPNParser" style="stroke:#181818;stroke-width:3.125;stroke-dasharray:21.875,21.875;"/><polygon fill="none" points="1124.75,1707.9375,1162.8488,1753.37,1182.4885,1721.4242,1124.75,1707.9375" style="stroke:#181818;stroke-width:3.125;"/></g><!--reverse link RPNCalculator to IParser--><g class="link" data-entity-1="RPNCalculator" data-entity-2="IParser" data-source-line="65" data-uid="lnk13" id="link_RPNCalculator_IParser"><path codeLine="65" d="M1261.5663,1250.4914 C1176.91,1348.3977 1111.6563,1423.875 1047.6875,1497.875" fill="none" id="RPNCalculator-backto-IParser" style="stroke:#181818;stroke-width:3.125;"/><polygon fill="none" points="1286.0938,1222.125,1264.3745,1228.1324,1261.5663,1250.4914,1283.2855,1244.484,1286.0938,1222.125" style="stroke:#181818;stroke-width:3.125;"/><text fill="#000000" font-family="sans-serif" font-size="40.625" lengthAdjust="spacing" textLength="141.7407" x="1196.875" y="1362.1782">parser_</text><text fill="#000000" font-family="sans-serif" font-size="40.625" lengthAdjust="spacing" textLength="23.2375" x="1242.4867" y="1292.1925">1</text><text fill="#000000" font-family="sans-serif" font-size="40.625" lengthAdjust="spacing" textLength="23.2375" x="1042.0602" y="1461.1975">1</text></g><!--reverse link RPNCalculator to IOperation--><g class="link" data-entity-1="RPNCalculator" data-entity-2="IOperation" data-source-line="68" data-uid="lnk14" id="link_RPNCalculator_IOperation"><path codeLine="68" d="M1696.1381,1255.1679 C1741.9193,1340.4804 1772.4062,1397.25 1810.3437,1467.9063" fill="none" id="RPNCalculator-backto-IOperation" style="stroke:#181818;stroke-width:3.125;"/><polygon fill="none" points="1678.4063,1222.125,1676.2579,1244.5571,1696.1381,1255.1679,1698.2865,1232.7358,1678.4063,1222.125" style="stroke:#181818;stroke-width:3.125;"/><text fill="#000000" font-family="sans-serif" font-size="40.625" lengthAdjust="spacing" textLength="224.3721" x="1759.375" y="1362.1782">operations_</text><text fill="#000000" font-family="sans-serif" font-size="40.625" lengthAdjust="spacing" textLength="23.2375" x="1668.5135" y="1292.1925">1</text><text fill="#000000" font-family="sans-serif" font-size="40.625" lengthAdjust="spacing" textLength="67.397" x="1727.6029" y="1431.562">0..*</text></g><!--link main to RPNCalculator--><g class="link" data-entity-1="main" data-entity-2="RPNCalculator" data-source-line="134" data-uid="lnk16" id="link_main_RPNCalculator"><path codeLine="134" d="M2234.7188,316.125 C2167.6563,370.4062 2083.2188,439.7188 2009.375,503.125 C1952.6875,551.8125 1906.9566,591.9201 1849.6128,643.1076" fill="none" id="main-to-RPNCalculator" style="stroke:#181818;stroke-width:3.125;stroke-dasharray:21.875,21.875;"/><polygon fill="#181818" points="1835.625,655.5937,1864.9308,646.1898,1847.2815,645.1886,1848.2826,627.5393,1835.625,655.5937" style="stroke:#181818;stroke-width:3.125;"/><text fill="#000000" font-family="sans-serif" font-size="40.625" lengthAdjust="spacing" textLength="261.5439" x="2012.5" y="549.6782">creates, owns</text></g><!--link main to RPNParser--><g class="link" data-entity-1="main" data-entity-2="RPNParser" data-source-line="135" data-uid="lnk17" id="link_main_RPNParser"><path codeLine="135" d="M2369,315.6875 C2397.5,563.2188 2448.8438,1234.625 2246.875,1737.5 C2193.9375,1869.3125 2099.3346,1978.2285 2014.8971,2059.7285" fill="none" id="main-to-RPNParser" style="stroke:#181818;stroke-width:3.125;stroke-dasharray:21.875,21.875;"/><polygon fill="#181818" points="2001.4063,2072.75,2030.3235,2062.2116,2012.6486,2061.8987,2012.9615,2044.2238,2001.4063,2072.75" style="stroke:#181818;stroke-width:3.125;"/><text fill="#000000" font-family="sans-serif" font-size="40.625" lengthAdjust="spacing" textLength="139.0188" x="2359.375" y="1362.1782">creates</text></g><!--SRC=[vLRDKjim4BxhAHQNcJW5t32zUJAUeRG7BZJ3ppcZs08qE9BHJo05deX7w8qdgsHB_aaSScYPOQOv9CxgqxVVhdPNthdIB5MKCzYLYeXm5m_HZY1A2mR1wyiuvJaNyQTqD4e2s8DTRBw2yPVIdBp-3j0EOPddG4ZUKbPWWUUGvbZA8wK4dMb5JbBEpkal0gCMv7j1uUjeX0QGaoi5YeEWrpSACYg8uqE4wJbSy5l2BfO5WKS4vdEgvpCYoiUV1H6un3uRxqheL5Lm1zq3PVR53OMpBd2kZJdZUfPxcrpEPpoFGQeiZWqNPTV8BPNRGsFhh4uNbDmFhMVAJFAkS4hWP8A59CAvVyGp0yMfUjw3mYw49dYjUbYSQM4Yvs9S-aiiy-2ag0Yr9BBIWRoFA4fSi76vZ52JgIXouBQsEbjrTggOm-6w8WUu8NanLUH1zMAweH_ZFDKvDW7K_3ZBfjnx3NdXE3IZTvfC2oN6ZQZ4U5Xmchcjn9uHLYGa3uKWKXf4RzuwPxWkrsLqTMFY4w2BWWj5MZBbzhtsOA0L-QdESooMxVmEm8NnG5BJ0M6ZT02hso_PbisbDfPvYhUulj5jPBRRFC5-rNCRYTSZYwAdf5L95hCYlmUnAceLWjgrCtuonNisEMrCTSNxfUgl4TY10Rzd4Wvz3wBkOd0O03yuA7yzNrnrfPZsKusYw7DRvWP22mlQtHL3Kqo6kfo5BTd_QZRKlArCLTm7FgwUVgj490xN4jfJzFrzclYns74TLYutUnp-1pEXEfAZBAEkz9lsUsFKUiZRm_Pl-hZITQvdPSLzH6bt6WjonhbwNsNR9gbJGvcM7q78X1wRubEOlNDQrjpx4dQZUcM06q2hbZPZwaDraCirX4tqfiKcU8TOlOnG_SuNJ0I_jY-LFvWIIvXmSoC6W2NCCVLlE_RH1cgMJBFUq8n0O6q1f5Ia9dHKWkrRLNVGnv0AOgQEt2-lXGwilaWS1Fq1]--></g></svg>