<svg xmlns="http://www.w3.org/2000/svg" xmlns:xlink="http://www.w3.org/1999/xlink" contentStyleType="text/css" data-diagram-type="CLASS" height="2559.375px" preserveAspectRatio="none" style="width:2943px;height:2559px;background:#FFFFFF;" version="1.1" viewBox="0 0 2943 2559" width="2943.75px" zoomAndPan="magnify"><defs/><g><!--class IOperation--><g class="entity" data-entity="IOperation" data-source-line="12" data-uid="ent0002" id="entity_IOperation"><rect fill="#F1F1F1" height="269.1745" rx="7.8125" ry="7.8125" style="stroke:#181818;stroke-width:1.5625;" width="619.7665" x="2303.125" y="707.8125"/><ellipse cx="2494.268" cy="757.8125" fill="#B4A7E5" rx="34.375" ry="34.375" style="stroke:#181818;stroke-width:3.125;"/><path d="M2481.5239,744.5801 L2481.5239,737.8418 L2504.6196,737.8418 L2504.6196,744.5801 L2496.9047,744.5801 L2496.9047,769.8242 L2504.6196,769.8242 L2504.6196,776.5625 L2481.5239,776.5625 L2481.5239,769.8242 L2489.2387,769.8242 L2489.2387,744.5801 L2481.5239,744.5801 Z " fill="#000000"/><text fill="#000000" font-family="sans-serif" font-size="43.75" font-style="italic" lengthAdjust="spacing" textLength="210.9179" x="2558.3305" y="774.7874">IOperation</text><line style="stroke:#181818;stroke-width:1.5625;" x1="2306.25" x2="2919.7665" y1="807.8125" y2="807.8125"/><line style="stroke:#181818;stroke-width:1.5625;" x1="2306.25" x2="2919.7665" y1="832.8125" y2="832.8125"/><text fill="#000000" font-family="sans-serif" font-size="43.75" lengthAdjust="spacing" textLength="542.3666" x="2321.875" y="892.081">+symbol(): std::string_view</text><text fill="#000000" font-family="sans-serif" font-size="43.75" lengthAdjust="spacing" textLength="582.2665" x="2321.875" y="951.6683">+help_text(): std::string_view</text></g><!--class INullaryOperation--><g class="entity" data-entity="INullaryOperation" data-source-line="18" data-uid="ent0003" id="entity_INullaryOperation"><rect fill="#F1F1F1" height="209.5872" rx="7.8125" ry="7.8125" style="stroke:#181818;stroke-width:1.5625;" width="452.4487" x="1412.5" y="250"/><ellipse cx="1459.375" cy="300" fill="#B4A7E5" rx="34.375" ry="34.375" style="stroke:#181818;stroke-width:3.125;"/><path d="M1446.6309,286.7676 L1446.6309,280.0293 L1469.7266,280.0293 L1469.7266,286.7676 L1462.0117,286.7676 L1462.0117,312.0117 L1469.7266,312.0117 L1469.7266,318.75 L1446.6309,318.75 L1446.6309,312.0117 L1454.3457,312.0117 L1454.3457,286.7676 L1446.6309,286.7676 Z " fill="#000000"/><text fill="#000000" font-family="sans-serif" font-size="43.75" font-style="italic" lengthAdjust="spacing" textLength="352.4487" x="1503.125" y="316.9749">INullaryOperation</text><line style="stroke:#181818;stroke-width:1.5625;" x1="1415.625" x2="1861.8237" y1="350" y2="350"/><line style="stroke:#181818;stroke-width:1.5625;" x1="1415.625" x2="1861.8237" y1="375" y2="375"/><text fill="#000000" font-family="sans-serif" font-size="43.75" lengthAdjust="spacing" textLength="392.4359" x="1431.25" y="434.2685">+evaluate(): double</text></g><!--class IUnaryOperation--><g class="entity" data-entity="IUnaryOperation" data-source-line="22" data-uid="ent0004" id="entity_IUnaryOperation"><rect fill="#F1F1F1" height="209.5872" rx="7.8125" ry="7.8125" style="stroke:#181818;stroke-width:1.5625;" width="770.9221" x="1253.125" y="737.5"/><ellipse cx="1461.0242" cy="787.5" fill="#B4A7E5" rx="34.375" ry="34.375" style="stroke:#181818;stroke-width:3.125;"/><path d="M1448.28,774.2676 L1448.28,767.5293 L1471.3758,767.5293 L1471.3758,774.2676 L1463.6609,774.2676 L1463.6609,799.5117 L1471.3758,799.5117 L1471.3758,806.25 L1448.28,806.25 L1448.28,799.5117 L1455.9949,799.5117 L1455.9949,774.2676 L1448.28,774.2676 Z " fill="#000000"/><text fill="#000000" font-family="sans-serif" font-size="43.75" font-style="italic" lengthAdjust="spacing" textLength="328.5613" x="1525.0867" y="804.4749">IUnaryOperation</text><line style="stroke:#181818;stroke-width:1.5625;" x1="1256.25" x2="2020.9221" y1="837.5" y2="837.5"/><line style="stroke:#181818;stroke-width:1.5625;" x1="1256.25" x2="2020.9221" y1="862.5" y2="862.5"/><text fill="#000000" font-family="sans-serif" font-size="43.75" lengthAdjust="spacing" textLength="733.4221" x="1271.875" y="921.7685">+evaluate(operand: double): double</text></g><!--class IBinaryOperation--><g class="entity" data-entity="IBinaryOperation" data-source-line="26" data-uid="ent0005" id="entity_IBinaryOperation"><rect fill="#F1F1F1" height="209.5872" rx="7.8125" ry="7.8125" style="stroke:#181818;stroke-width:1.5625;" width="951.6965" x="1162.5" y="1612.5"/><ellipse cx="1456.827" cy="1662.5" fill="#B4A7E5" rx="34.375" ry="34.375" style="stroke:#181818;stroke-width:3.125;"/><path d="M1444.0829,1649.2676 L1444.0829,1642.5293 L1467.1786,1642.5293 L1467.1786,1649.2676 L1459.4637,1649.2676 L1459.4637,1674.5117 L1467.1786,1674.5117 L1467.1786,1681.25 L1444.0829,1681.25 L1444.0829,1674.5117 L1451.7977,1674.5117 L1451.7977,1649.2676 L1444.0829,1649.2676 Z " fill="#000000"/><text fill="#000000" font-family="sans-serif" font-size="43.75" font-style="italic" lengthAdjust="spacing" textLength="336.4799" x="1520.8895" y="1679.4749">IBinaryOperation</text><line style="stroke:#181818;stroke-width:1.5625;" x1="1165.625" x2="2111.0715" y1="1712.5" y2="1712.5"/><line style="stroke:#181818;stroke-width:1.5625;" x1="1165.625" x2="2111.0715" y1="1737.5" y2="1737.5"/><text fill="#000000" font-family="sans-serif" font-size="43.75" lengthAdjust="spacing" textLength="914.1965" x="1181.25" y="1796.7685">+evaluate(left: double, right: double): double</text></g><!--class Addition--><g class="entity" data-entity="Addition" data-source-line="35" data-uid="ent0009" id="entity_Addition"><rect fill="#F1F1F1" height="328.7617" rx="7.8125" ry="7.8125" style="stroke:#181818;stroke-width:1.5625;" width="951.6965" x="21.875" y="1334.375"/><ellipse cx="397.6204" cy="1384.375" fill="#ADD1B2" rx="34.375" ry="34.375" style="stroke:#181818;stroke-width:3.125;"/><path d="M406.8978,1402.002 Q405.0911,1402.9297 403.0892,1403.3691 Q401.0872,1403.8574 398.89,1403.8574 Q391.0775,1403.8574 386.9271,1398.7305 Q382.8255,1393.5547 382.8255,1383.7891 Q382.8255,1374.0234 386.9271,1368.8477 Q391.0775,1363.6719 398.89,1363.6719 Q401.0872,1363.6719 403.0892,1364.1602 Q405.14,1364.6484 406.8978,1365.5762 L406.8978,1374.0723 Q404.9447,1372.2656 403.0892,1371.4355 Q401.2337,1370.5566 399.2806,1370.5566 Q395.0814,1370.5566 392.9329,1373.9258 Q390.7845,1377.2461 390.7845,1383.7891 Q390.7845,1390.332 392.9329,1393.7012 Q395.0814,1397.0215 399.2806,1397.0215 Q401.2337,1397.0215 403.0892,1396.1914 Q404.9447,1395.3125 406.8978,1393.5059 L406.8978,1402.002 Z " fill="#000000"/><text fill="#000000" font-family="sans-serif" font-size="43.75" lengthAdjust="spacing" textLength="173.6431" x="461.6829" y="1401.3499">Addition</text><line style="stroke:#181818;stroke-width:1.5625;" x1="25" x2="970.4465" y1="1434.375" y2="1434.375"/><line style="stroke:#181818;stroke-width:1.5625;" x1="25" x2="970.4465" y1="1459.375" y2="1459.375"/><text fill="#000000" font-family="sans-serif" font-size="43.75" lengthAdjust="spacing" textLength="542.3666" x="40.625" y="1518.6435">+symbol(): std::string_view</text><text fill="#000000" font-family="sans-serif" font-size="43.75" lengthAdjust="spacing" textLength="582.2665" x="40.625" y="1578.2308">+help_text(): std::string_view</text><text fill="#000000" font-family="sans-serif" font-size="43.75" lengthAdjust="spacing" textLength="914.1965" x="40.625" y="1637.818">+evaluate(left: double, right: double): double</text></g><!--class Subtraction--><g class="entity" data-entity="Subtraction" data-source-line="42" data-uid="ent0010" id="entity_Subtraction"><rect fill="#F1F1F1" height="328.7617" rx="7.8125" ry="7.8125" style="stroke:#181818;stroke-width:1.5625;" width="951.6965" x="21.875" y="1771.875"/><ellipse cx="365.4643" cy="1821.875" fill="#ADD1B2" rx="34.375" ry="34.375" style="stroke:#181818;stroke-width:3.125;"/><path d="M374.7416,1839.502 Q372.935,1840.4297 370.9331,1840.8691 Q368.9311,1841.3574 366.7338,1841.3574 Q358.9213,1841.3574 354.7709,1836.2305 Q350.6694,1831.0547 350.6694,1821.2891 Q350.6694,1811.5234 354.7709,1806.3477 Q358.9213,1801.1719 366.7338,1801.1719 Q368.9311,1801.1719 370.9331,1801.6602 Q372.9838,1802.1484 374.7416,1803.0762 L374.7416,1811.5723 Q372.7885,1809.7656 370.9331,1808.9355 Q369.0776,1808.0566 367.1245,1808.0566 Q362.9252,1808.0566 360.7768,1811.4258 Q358.6284,1814.7461 358.6284,1821.2891 Q358.6284,1827.832 360.7768,1831.2012 Q362.9252,1834.5215 367.1245,1834.5215 Q369.0776,1834.5215 370.9331,1833.6914 Q372.7885,1832.8125 374.7416,1831.0059 L374.7416,1839.502 Z " fill="#000000"/><text fill="#000000" font-family="sans-serif" font-size="43.75" lengthAdjust="spacing" textLength="237.9554" x="429.5268" y="1838.8499">Subtraction</text><line style="stroke:#181818;stroke-width:1.5625;" x1="25" x2="970.4465" y1="1871.875" y2="1871.875"/><line style="stroke:#181818;stroke-width:1.5625;" x1="25" x2="970.4465" y1="1896.875" y2="1896.875"/><text fill="#000000" font-family="sans-serif" font-size="43.75" lengthAdjust="spacing" textLength="542.3666" x="40.625" y="1956.1435">+symbol(): std::string_view</text><text fill="#000000" font-family="sans-serif" font-size="43.75" lengthAdjust="spacing" textLength="582.2665" x="40.625" y="2015.7308">+help_text(): std::string_view</text><text fill="#000000" font-family="sans-serif" font-size="43.75" lengthAdjust="spacing" textLength="914.1965" x="40.625" y="2075.318">+evaluate(left: double, right: double): double</text></g><!--class Power--><g class="entity" data-entity="Power" data-source-line="49" data-uid="ent0011" id="entity_Power"><rect fill="#F1F1F1" height="328.7617" rx="7.8125" ry="7.8125" style="stroke:#181818;stroke-width:1.5625;" width="951.6965" x="21.875" y="2209.375"/><ellipse cx="419.4079" cy="2259.375" fill="#ADD1B2" rx="34.375" ry="34.375" style="stroke:#181818;stroke-width:3.125;"/><path d="M428.6852,2277.002 Q426.8786,2277.9297 424.8766,2278.3691 Q422.8747,2278.8574 420.6774,2278.8574 Q412.8649,2278.8574 408.7145,2273.7305 Q404.6129,2268.5547 404.6129,2258.7891 Q404.6129,2249.0234 408.7145,2243.8477 Q412.8649,2238.6719 420.6774,2238.6719 Q422.8747,2238.6719 424.8766,2239.1602 Q426.9274,2239.6484 428.6852,2240.5762 L428.6852,2249.0723 Q426.7321,2247.2656 424.8766,2246.4355 Q423.0211,2245.5566 421.068,2245.5566 Q416.8688,2245.5566 414.7204,2248.9258 Q412.5719,2252.2461 412.5719,2258.7891 Q412.5719,2265.332 414.7204,2268.7012 Q416.8688,2272.0215 421.068,2272.0215 Q423.0211,2272.0215 424.8766,2271.1914 Q426.7321,2270.3125 428.6852,2268.5059 L428.6852,2277.002 Z " fill="#000000"/><text fill="#000000" font-family="sans-serif" font-size="43.75" lengthAdjust="spacing" textLength="130.0683" x="483.4704" y="2276.3499">Power</text><line style="stroke:#181818;stroke-width:1.5625;" x1="25" x2="970.4465" y1="2309.375" y2="2309.375"/><line style="stroke:#181818;stroke-width:1.5625;" x1="25" x2="970.4465" y1="2334.375" y2="2334.375"/><text fill="#000000" font-family="sans-serif" font-size="43.75" lengthAdjust="spacing" textLength="542.3666" x="40.625" y="2393.6435">+symbol(): std::string_view</text><text fill="#000000" font-family="sans-serif" font-size="43.75" lengthAdjust="spacing" textLength="582.2665" x="40.625" y="2453.2308">+help_text(): std::string_view</text><text fill="#000000" font-family="sans-serif" font-size="43.75" lengthAdjust="spacing" textLength="914.1965" x="40.625" y="2512.818">+evaluate(left: double, right: double): double</text></g><!--class SquareRoot--><g class="entity" data-entity="SquareRoot" data-source-line="56" data-uid="ent0012" id="entity_SquareRoot"><rect fill="#F1F1F1" height="328.7617" rx="7.8125" ry="7.8125" style="stroke:#181818;stroke-width:1.5625;" width="770.9221" x="112.5" y="459.375"/><ellipse cx="364.0834" cy="509.375" fill="#ADD1B2" rx="34.375" ry="34.375" style="stroke:#181818;stroke-width:3.125;"/><path d="M373.3607,527.002 Q371.5541,527.9297 369.5521,528.3691 Q367.5502,528.8574 365.3529,528.8574 Q357.5404,528.8574 353.39,523.7305 Q349.2885,518.5547 349.2885,508.7891 Q349.2885,499.0234 353.39,493.8477 Q357.5404,488.6719 365.3529,488.6719 Q367.5502,488.6719 369.5521,489.1602 Q371.6029,489.6484 373.3607,490.5762 L373.3607,499.0723 Q371.4076,497.2656 369.5521,496.4355 Q367.6967,495.5566 365.7435,495.5566 Q361.5443,495.5566 359.3959,498.9258 Q357.2474,502.2461 357.2474,508.7891 Q357.2474,515.332 359.3959,518.7012 Q361.5443,522.0215 365.7435,522.0215 Q367.6967,522.0215 369.5521,521.1914 Q371.4076,520.3125 373.3607,518.5059 L373.3607,527.002 Z " fill="#000000"/><text fill="#000000" font-family="sans-serif" font-size="43.75" lengthAdjust="spacing" textLength="241.1929" x="428.1459" y="526.3499">SquareRoot</text><line style="stroke:#181818;stroke-width:1.5625;" x1="115.625" x2="880.2971" y1="559.375" y2="559.375"/><line style="stroke:#181818;stroke-width:1.5625;" x1="115.625" x2="880.2971" y1="584.375" y2="584.375"/><text fill="#000000" font-family="sans-serif" font-size="43.75" lengthAdjust="spacing" textLength="542.3666" x="131.25" y="643.6435">+symbol(): std::string_view</text><text fill="#000000" font-family="sans-serif" font-size="43.75" lengthAdjust="spacing" textLength="582.2665" x="131.25" y="703.2308">+help_text(): std::string_view</text><text fill="#000000" font-family="sans-serif" font-size="43.75" lengthAdjust="spacing" textLength="733.4221" x="131.25" y="762.818">+evaluate(operand: double): double</text></g><!--class Exponent--><g class="entity" data-entity="Exponent" data-source-line="63" data-uid="ent0013" id="entity_Exponent"><rect fill="#F1F1F1" height="328.7617" rx="7.8125" ry="7.8125" style="stroke:#181818;stroke-width:1.5625;" width="770.9221" x="112.5" y="896.875"/><ellipse cx="386.9864" cy="946.875" fill="#ADD1B2" rx="34.375" ry="34.375" style="stroke:#181818;stroke-width:3.125;"/><path d="M396.2638,964.502 Q394.4571,965.4297 392.4552,965.8691 Q390.4532,966.3574 388.256,966.3574 Q380.4435,966.3574 376.2931,961.2305 Q372.1915,956.0547 372.1915,946.2891 Q372.1915,936.5234 376.2931,931.3477 Q380.4435,926.1719 388.256,926.1719 Q390.4532,926.1719 392.4552,926.6602 Q394.506,927.1484 396.2638,928.0762 L396.2638,936.5723 Q394.3107,934.7656 392.4552,933.9355 Q390.5997,933.0566 388.6466,933.0566 Q384.4474,933.0566 382.2989,936.4258 Q380.1505,939.7461 380.1505,946.2891 Q380.1505,952.832 382.2989,956.2012 Q384.4474,959.5215 388.6466,959.5215 Q390.5997,959.5215 392.4552,958.6914 Q394.3107,957.8125 396.2638,956.0059 L396.2638,964.502 Z " fill="#000000"/><text fill="#000000" font-family="sans-serif" font-size="43.75" lengthAdjust="spacing" textLength="195.3867" x="451.0489" y="963.8499">Exponent</text><line style="stroke:#181818;stroke-width:1.5625;" x1="115.625" x2="880.2971" y1="996.875" y2="996.875"/><line style="stroke:#181818;stroke-width:1.5625;" x1="115.625" x2="880.2971" y1="1021.875" y2="1021.875"/><text fill="#000000" font-family="sans-serif" font-size="43.75" lengthAdjust="spacing" textLength="542.3666" x="131.25" y="1081.1435">+symbol(): std::string_view</text><text fill="#000000" font-family="sans-serif" font-size="43.75" lengthAdjust="spacing" textLength="582.2665" x="131.25" y="1140.7308">+help_text(): std::string_view</text><text fill="#000000" font-family="sans-serif" font-size="43.75" lengthAdjust="spacing" textLength="733.4221" x="131.25" y="1200.318">+evaluate(operand: double): double</text></g><!--class PiConstant--><g class="entity" data-entity="PiConstant" data-source-line="70" data-uid="ent0014" id="entity_PiConstant"><rect fill="#F1F1F1" height="328.7617" rx="7.8125" ry="7.8125" style="stroke:#181818;stroke-width:1.5625;" width="619.7665" x="189.0625" y="21.875"/><ellipse cx="374.1462" cy="71.875" fill="#ADD1B2" rx="34.375" ry="34.375" style="stroke:#181818;stroke-width:3.125;"/><path d="M383.4235,89.502 Q381.6169,90.4297 379.6149,90.8691 Q377.6129,91.3574 375.4157,91.3574 Q367.6032,91.3574 363.4528,86.2305 Q359.3512,81.0547 359.3512,71.2891 Q359.3512,61.5234 363.4528,56.3477 Q367.6032,51.1719 375.4157,51.1719 Q377.6129,51.1719 379.6149,51.6602 Q381.6657,52.1484 383.4235,53.0762 L383.4235,61.5723 Q381.4704,59.7656 379.6149,58.9355 Q377.7594,58.0566 375.8063,58.0566 Q371.6071,58.0566 369.4587,61.4258 Q367.3102,64.7461 367.3102,71.2891 Q367.3102,77.832 369.4587,81.2012 Q371.6071,84.5215 375.8063,84.5215 Q377.7594,84.5215 379.6149,83.6914 Q381.4704,82.8125 383.4235,81.0059 L383.4235,89.502 Z " fill="#000000"/><text fill="#000000" font-family="sans-serif" font-size="43.75" lengthAdjust="spacing" textLength="223.0367" x="438.2087" y="88.8499">PiConstant</text><line style="stroke:#181818;stroke-width:1.5625;" x1="192.1875" x2="805.704" y1="121.875" y2="121.875"/><line style="stroke:#181818;stroke-width:1.5625;" x1="192.1875" x2="805.704" y1="146.875" y2="146.875"/><text fill="#000000" font-family="sans-serif" font-size="43.75" lengthAdjust="spacing" textLength="542.3666" x="207.8125" y="206.1435">+symbol(): std::string_view</text><text fill="#000000" font-family="sans-serif" font-size="43.75" lengthAdjust="spacing" textLength="582.2665" x="207.8125" y="265.7308">+help_text(): std::string_view</text><text fill="#000000" font-family="sans-serif" font-size="43.75" lengthAdjust="spacing" textLength="392.4359" x="207.8125" y="325.318">+evaluate(): double</text></g><!--link INullaryOperation to IOperation--><g class="link" data-entity-1="INullaryOperation" data-entity-2="IOperation" data-source-line="30" data-uid="lnk6" id="link_INullaryOperation_IOperation"><path codeLine="30" d="M1850.875,459.875 C1994.6875,532.375 2136.8635,604.0261 2291.926,682.1824" fill="none" id="INullaryOperation-to-IOperation" style="stroke:#181818;stroke-width:3.125;stroke-dasharray:21.875,21.875;"/><polygon fill="none" points="2342.1563,707.5,2300.3652,665.439,2283.4868,698.9258,2342.1563,707.5" style="stroke:#181818;stroke-width:3.125;"/></g><!--link IUnaryOperation to IOperation--><g class="link" data-entity-1="IUnaryOperation" data-entity-2="IOperation" data-source-line="31" data-uid="lnk7" id="link_IUnaryOperation_IOperation"><path codeLine="31" d="M2025.8438,842.1875 C2117.5938,842.1875 2158.1563,842.1875 2245.9375,842.1875" fill="none" id="IUnaryOperation-to-IOperation" style="stroke:#181818;stroke-width:3.125;stroke-dasharray:21.875,21.875;"/><polygon fill="none" points="2302.1875,842.1875,2245.9375,823.4375,2245.9375,860.9375,2302.1875,842.1875" style="stroke:#181818;stroke-width:3.125;"/></g><!--link IBinaryOperation to IOperation--><g class="link" data-entity-1="IBinaryOperation" data-entity-2="IOperation" data-source-line="32" data-uid="lnk8" id="link_IBinaryOperation_IOperation"><path codeLine="32" d="M1758.8438,1611.6563 C1934.6875,1452.5625 2225.8833,1189.1462 2418.9146,1014.4899" fill="none" id="IBinaryOperation-to-IOperation" style="stroke:#181818;stroke-width:3.125;stroke-dasharray:21.875,21.875;"/><polygon fill="none" points="2460.625,976.75,2406.3346,1000.5865,2431.4946,1028.3934,2460.625,976.75" style="stroke:#181818;stroke-width:3.125;"/></g><!--link Addition to IBinaryOperation--><g class="link" data-entity-1="Addition" data-entity-2="IBinaryOperation" data-source-line="77" data-uid="lnk15" id="link_Addition_IBinaryOperation"><path codeLine="77" d="M975.25,1589.7813 C1036.9063,1601.6875 1044.8641,1603.1785 1106.5203,1615.0848" fill="none" id="Addition-to-IBinaryOperation" style="stroke:#181818;stroke-width:3.125;stroke-dasharray:21.875,21.875;"/><polygon fill="none" points="1161.75,1625.75,1110.0754,1596.6749,1102.9653,1633.4947,1161.75,1625.75" style="stroke:#181818;stroke-width:3.125;"/></g><!--link Subtraction to IBinaryOperation--><g class="link" data-entity-1="Subtraction" data-entity-2="IBinaryOperation" data-source-line="78" data-uid="lnk16" id="link_Subtraction_IBinaryOperation"><path codeLine="78" d="M975.25,1844.5938 C1036.9063,1832.6875 1044.8641,1831.1965 1106.5203,1819.2902" fill="none" id="Subtraction-to-IBinaryOperation" style="stroke:#181818;stroke-width:3.125;stroke-dasharray:21.875,21.875;"/><polygon fill="none" points="1161.75,1808.625,1102.9653,1800.8803,1110.0754,1837.7001,1161.75,1808.625" style="stroke:#181818;stroke-width:3.125;"/></g><!--link SquareRoot to IUnaryOperation--><g class="link" data-entity-1="SquareRoot" data-entity-2="IUnaryOperation" data-source-line="79" data-uid="lnk17" id="link_SquareRoot_IUnaryOperation"><path codeLine="79" d="M884.8125,697.3437 C1003.4375,720.2188 1078.8925,734.7555 1197.5175,757.6305" fill="none" id="SquareRoot-to-IUnaryOperation" style="stroke:#181818;stroke-width:3.125;stroke-dasharray:21.875,21.875;"/><polygon fill="none" points="1252.75,768.2813,1201.0678,739.2197,1193.9673,776.0413,1252.75,768.2813" style="stroke:#181818;stroke-width:3.125;"/></g><!--link Power to IBinaryOperation--><g class="link" data-entity-1="Power" data-entity-2="IBinaryOperation" data-source-line="80" data-uid="lnk18" id="link_Power_IBinaryOperation"><path codeLine="80" d="M871.3125,2209.25 C906.7187,2191.5313 941.7813,2173.2188 975,2154.6875 C1159.4688,2051.8125 1314.4542,1947.5301 1445.7354,1854.4676" fill="none" id="Power-to-IBinaryOperation" style="stroke:#181818;stroke-width:3.125;stroke-dasharray:21.875,21.875;"/><polygon fill="none" points="1491.625,1821.9375,1434.8921,1839.1711,1456.5788,1869.7642,1491.625,1821.9375" style="stroke:#181818;stroke-width:3.125;"/></g><!--link Exponent to IUnaryOperation--><g class="link" data-entity-1="Exponent" data-entity-2="IUnaryOperation" data-source-line="81" data-uid="lnk19" id="link_Exponent_IUnaryOperation"><path codeLine="81" d="M884.8125,987.0313 C1003.4375,964.1562 1078.8925,949.6195 1197.5175,926.7445" fill="none" id="Exponent-to-IUnaryOperation" style="stroke:#181818;stroke-width:3.125;stroke-dasharray:21.875,21.875;"/><polygon fill="none" points="1252.75,916.0937,1193.9673,908.3337,1201.0678,945.1553,1252.75,916.0937" style="stroke:#181818;stroke-width:3.125;"/></g><!--link PiConstant to INullaryOperation--><g class="link" data-entity-1="PiConstant" data-entity-2="INullaryOperation" data-source-line="82" data-uid="lnk20" id="link_PiConstant_INullaryOperation"><path codeLine="82" d="M808.5313,231.5938 C999.1563,259.9688 1184.1756,287.4679 1356.7381,313.1554" fill="none" id="PiConstant-to-INullaryOperation" style="stroke:#181818;stroke-width:3.125;stroke-dasharray:21.875,21.875;"/><polygon fill="none" points="1412.375,321.4375,1359.4987,294.6098,1353.9774,331.7011,1412.375,321.4375" style="stroke:#181818;stroke-width:3.125;"/></g><!--SRC=[pLJ1Rjim3BthAnWlG5kqo0piPXG1kgw7NZgZnSw58ZE9C4NoAAffjlMBzWcxzSicEtRXE4aB32jM0pPWyf5wV28vc0QhM3iBGyz8XqDv90Q47CX2ylZhL3dZA7kdqdISm34CPVmaf-zhy_ZnTo86Q8isXn3-gxQb9Ba0PQJtPyoa9u7nKZbxexyZf1t8frB3XpGL1gSCx83qRCvGQC8ccn3QHb9JgH0kFvT8icRwGq1yZi6l5XDd3eyoy5nacOzdsTdjdSPb0vYZAMyPxtadvc4p_rKmHj9g-nYyaoP8nYf9uSB4O1NQYVnYduzpbSiMRVI-D1_r2tagdThOaxLQEtDkbp8Q_Hnt51Hzobl-FfS-G8ZwVk6iA7Hj-4TtyfSLhydSX0cJL6-6J-wMIF0sfFaM9E6rS_nAT9xhyJM5Y_lIMRJ_Zq2kpvtrB5-DmiQPxMGqezCRAD7frNs8fojh09ipAzRTjJksrNfFv9CGZR-_B-9u7yHgAIY692StgxRrXMLQnPwE6oi1wM4XTRMZ3YeHwf-g_kYCbeVupdM1a5Js19Gc5LM9rZfeD1h3TNvrBeqAHh8Zo40HHWdz2RYbzJrWBibZ1oJ-0000]--></g></svg>